HIERARCHY
ROOT mixamorig:Hips
{
	OFFSET 0.000000 102.625267 -0.521241
	CHANNELS 6 Xposition Yposition Zposition Xrotation Yrotation Zrotation
	JOINT mixamorig:Spine
	{
		OFFSET 0.000000 5.645721 -0.031929
		CHANNELS 3 Xrotation Yrotation Zrotation
		JOINT mixamorig:Spine1
		{
			OFFSET 0.000000 6.586685 -0.037251
			CHANNELS 3 Xrotation Yrotation Zrotation
			JOINT mixamorig:Spine2
			{
				OFFSET 0.000000 7.527618 -0.042572
				CHANNELS 3 Xrotation Yrotation Zrotation
				JOINT mixamorig:Neck
				{
					OFFSET 0.000000 8.468590 -0.047894
					CHANNELS 3 Xrotation Yrotation Zrotation
					JOINT mixamorig:Head
					{
						OFFSET 0.000000 5.998901 -1.158958
						CHANNELS 3 Xrotation Yrotation Zrotation
						JOINT mixamorig:HeadTop_End
						{
							OFFSET 0.000000 21.748810 -4.201760
							CHANNELS 3 Xrotation Yrotation Zrotation
							End Site
							{
								OFFSET 0.000000 22.150970 0.000000
							}
						}
					}
				}
				JOINT mixamorig:LeftShoulder
				{
					OFFSET 3.414614 7.343132 -0.058928
					CHANNELS 3 Xrotation Yrotation Zrotation
					JOINT mixamorig:LeftArm
					{
						OFFSET 6.829548 -2.246910 -0.022071
						CHANNELS 3 Xrotation Yrotation Zrotation
						JOINT mixamorig:LeftForeArm
						{
							OFFSET 24.198503 -0.424179 0.257802
							CHANNELS 3 Xrotation Yrotation Zrotation
							JOINT mixamorig:LeftHand
							{
								OFFSET 21.584717 -0.002335 0.669575
								CHANNELS 3 Xrotation Yrotation Zrotation
								JOINT mixamorig:LeftHandThumb1
								{
									OFFSET 2.193897 -1.259628 1.956942
									CHANNELS 3 Xrotation Yrotation Zrotation
									JOINT mixamorig:LeftHandThumb2
									{
										OFFSET 1.755203 -1.007660 1.565605
										CHANNELS 3 Xrotation Yrotation Zrotation
										JOINT mixamorig:LeftHandThumb3
										{
											OFFSET 2.535126 -0.998764 1.490660
											CHANNELS 3 Xrotation Yrotation Zrotation
											JOINT mixamorig:LeftHandThumb4
											{
												OFFSET 2.398251 -0.721657 1.023775
												CHANNELS 3 Xrotation Yrotation Zrotation
												End Site
												{
													OFFSET 2.205696 -0.773872 1.362551
												}
											}
										}
									}
								}
								JOINT mixamorig:LeftHandIndex1
								{
									OFFSET 7.166248 -0.069405 2.369028
									CHANNELS 3 Xrotation Yrotation Zrotation
									JOINT mixamorig:LeftHandIndex2
									{
										OFFSET 2.989986 -0.015724 0.245918
										CHANNELS 3 Xrotation Yrotation Zrotation
										JOINT mixamorig:LeftHandIndex3
										{
											OFFSET 2.739197 -0.058952 0.219132
											CHANNELS 3 Xrotation Yrotation Zrotation
											JOINT mixamorig:LeftHandIndex4
											{
												OFFSET 2.326500 -0.032570 0.188458
												CHANNELS 3 Xrotation Yrotation Zrotation
												End Site
												{
													OFFSET 2.326485 -0.032578 0.188548
												}
											}
										}
									}
								}
								JOINT mixamorig:LeftHandMiddle1
								{
									OFFSET 7.394897 0.286369 0.654762
									CHANNELS 3 Xrotation Yrotation Zrotation
									JOINT mixamorig:LeftHandMiddle2
									{
										OFFSET 3.376106 0.152466 -0.003692
										CHANNELS 3 Xrotation Yrotation Zrotation
										JOINT mixamorig:LeftHandMiddle3
										{
											OFFSET 3.185104 -0.185410 -0.047914
											CHANNELS 3 Xrotation Yrotation Zrotation
											JOINT mixamorig:LeftHandMiddle4
											{
												OFFSET 2.742905 0.223846 0.010354
												CHANNELS 3 Xrotation Yrotation Zrotation
												End Site
												{
													OFFSET 2.742889 0.224251 0.006757
												}
											}
										}
									}
								}
								JOINT mixamorig:LeftHandRing1
								{
									OFFSET 7.508747 0.282753 -1.072900
									CHANNELS 3 Xrotation Yrotation Zrotation
									JOINT mixamorig:LeftHandRing2
									{
										OFFSET 2.821857 0.317802 -0.177266
										CHANNELS 3 Xrotation Yrotation Zrotation
										JOINT mixamorig:LeftHandRing3
										{
											OFFSET 2.672325 0.088310 -0.196165
											CHANNELS 3 Xrotation Yrotation Zrotation
											JOINT mixamorig:LeftHandRing4
											{
												OFFSET 2.272652 -0.053627 -0.183955
												CHANNELS 3 Xrotation Yrotation Zrotation
												End Site
												{
													OFFSET 2.272919 -0.054016 -0.180438
												}
											}
										}
									}
								}
								JOINT mixamorig:LeftHandPinky1
								{
									OFFSET 7.285820 0.522377 -2.660948
									CHANNELS 3 Xrotation Yrotation Zrotation
									JOINT mixamorig:LeftHandPinky2
									{
										OFFSET 2.466278 0.082008 -0.249570
										CHANNELS 3 Xrotation Yrotation Zrotation
										JOINT mixamorig:LeftHandPinky3
										{
											OFFSET 1.940475 0.021858 -0.202004
											CHANNELS 3 Xrotation Yrotation Zrotation
											JOINT mixamorig:LeftHandPinky4
											{
												OFFSET 1.645287 0.153595 -0.153405
												CHANNELS 3 Xrotation Yrotation Zrotation
												End Site
												{
													OFFSET 1.645088 0.153801 -0.155289
												}
											}
										}
									}
								}
							}
						}
					}
				}
				JOINT mixamorig:RightShoulder
				{
					OFFSET -3.414604 7.343132 -0.036860
					CHANNELS 3 Xrotation Yrotation Zrotation
					JOINT mixamorig:RightArm
					{
						OFFSET -6.829551 -2.246986 0.022068
						CHANNELS 3 Xrotation Yrotation Zrotation
						JOINT mixamorig:RightForeArm
						{
							OFFSET -24.198494 -0.424141 0.158696
							CHANNELS 3 Xrotation Yrotation Zrotation
							JOINT mixamorig:RightHand
							{
								OFFSET -21.584698 -0.002243 0.686977
								CHANNELS 3 Xrotation Yrotation Zrotation
								JOINT mixamorig:RightHandThumb1
								{
									OFFSET -2.242882 -1.296806 1.978855
									CHANNELS 3 Xrotation Yrotation Zrotation
									JOINT mixamorig:RightHandThumb2
									{
										OFFSET -1.794239 -1.037361 1.583064
										CHANNELS 3 Xrotation Yrotation Zrotation
										JOINT mixamorig:RightHandThumb3
										{
											OFFSET -2.504150 -0.962166 1.471556
											CHANNELS 3 Xrotation Yrotation Zrotation
											JOINT mixamorig:RightHandThumb4
											{
												OFFSET -2.346046 -0.743172 0.992235
												CHANNELS 3 Xrotation Yrotation Zrotation
												End Site
												{
													OFFSET -2.157112 -0.792709 1.326359
												}
											}
										}
									}
								}
								JOINT mixamorig:RightHandIndex1
								{
									OFFSET -7.174488 -0.001839 2.366265
									CHANNELS 3 Xrotation Yrotation Zrotation
									JOINT mixamorig:RightHandIndex2
									{
										OFFSET -2.935219 -0.016853 0.287245
										CHANNELS 3 Xrotation Yrotation Zrotation
										JOINT mixamorig:RightHandIndex3
										{
											OFFSET -2.786827 -0.129890 0.255971
											CHANNELS 3 Xrotation Yrotation Zrotation
											JOINT mixamorig:RightHandIndex4
											{
												OFFSET -2.343559 0.168816 0.256164
												CHANNELS 3 Xrotation Yrotation Zrotation
												End Site
												{
													OFFSET -2.344208 0.169510 0.249690
												}
											}
										}
									}
								}
								JOINT mixamorig:RightHandMiddle1
								{
									OFFSET -7.274693 0.327965 0.656181
									CHANNELS 3 Xrotation Yrotation Zrotation
									JOINT mixamorig:RightHandMiddle2
									{
										OFFSET -3.309677 0.091591 0.032863
										CHANNELS 3 Xrotation Yrotation Zrotation
										JOINT mixamorig:RightHandMiddle3
										{
											OFFSET -3.186844 -0.122513 0.000971
											CHANNELS 3 Xrotation Yrotation Zrotation
											JOINT mixamorig:RightHandMiddle4
											{
												OFFSET -2.671951 -0.322540 -0.031001
												CHANNELS 3 Xrotation Yrotation Zrotation
												End Site
												{
													OFFSET -2.671928 -0.323486 -0.021820
												}
											}
										}
									}
								}
								JOINT mixamorig:RightHandRing1
								{
									OFFSET -7.453640 0.430428 -1.170334
									CHANNELS 3 Xrotation Yrotation Zrotation
									JOINT mixamorig:RightHandRing2
									{
										OFFSET -2.808174 0.165817 -0.117934
										CHANNELS 3 Xrotation Yrotation Zrotation
										JOINT mixamorig:RightHandRing3
										{
											OFFSET -2.730080 0.127754 -0.119542
											CHANNELS 3 Xrotation Yrotation Zrotation
											JOINT mixamorig:RightHandRing4
											{
												OFFSET -2.349426 0.078133 -0.107466
												CHANNELS 3 Xrotation Yrotation Zrotation
												End Site
												{
													OFFSET -2.349503 0.077988 -0.106043
												}
											}
										}
									}
								}
								JOINT mixamorig:RightHandPinky1
								{
									OFFSET -7.364456 0.463486 -2.604800
									CHANNELS 3 Xrotation Yrotation Zrotation
									JOINT mixamorig:RightHandPinky2
									{
										OFFSET -2.430134 0.174614 -0.251330
										CHANNELS 3 Xrotation Yrotation Zrotation
										JOINT mixamorig:RightHandPinky3
										{
											OFFSET -1.953583 0.007492 -0.220999
											CHANNELS 3 Xrotation Yrotation Zrotation
											JOINT mixamorig:RightHandPinky4
											{
												OFFSET -1.582039 0.276558 -0.139972
												CHANNELS 3 Xrotation Yrotation Zrotation
												End Site
												{
													OFFSET -1.581284 0.277252 -0.147002
												}
											}
										}
									}
								}
							}
						}
					}
				}
			}
		}
	}
	JOINT mixamorig:LeftUpLeg
	{
		OFFSET 6.620181 -8.816864 -0.447179
		CHANNELS 3 Xrotation Yrotation Zrotation
		JOINT mixamorig:LeftLeg
		{
			OFFSET 2.748989 -36.076775 0.650871
			CHANNELS 3 Xrotation Yrotation Zrotation
			JOINT mixamorig:LeftFoot
			{
				OFFSET 1.089303 -46.239017 1.019056
				CHANNELS 3 Xrotation Yrotation Zrotation
				JOINT mixamorig:LeftToeBase
				{
					OFFSET -0.371088 -10.380511 12.650617
					CHANNELS 3 Xrotation Yrotation Zrotation
					JOINT mixamorig:LeftToe_End
					{
						OFFSET -0.094684 -0.116785 6.663326
						CHANNELS 3 Xrotation Yrotation Zrotation
						End Site
						{
							OFFSET -0.094684 -0.116785 6.663326
						}
					}
				}
			}
		}
	}
	JOINT mixamorig:RightUpLeg
	{
		OFFSET -6.620174 -8.816818 -0.447182
		CHANNELS 3 Xrotation Yrotation Zrotation
		JOINT mixamorig:RightLeg
		{
			OFFSET -2.748991 -36.076790 0.753614
			CHANNELS 3 Xrotation Yrotation Zrotation
			JOINT mixamorig:RightFoot
			{
				OFFSET -1.089311 -46.239029 0.372114
				CHANNELS 3 Xrotation Yrotation Zrotation
				JOINT mixamorig:RightToeBase
				{
					OFFSET 0.371103 -10.380659 13.284531
					CHANNELS 3 Xrotation Yrotation Zrotation
					JOINT mixamorig:RightToe_End
					{
						OFFSET 0.094689 -0.116865 6.675873
						CHANNELS 3 Xrotation Yrotation Zrotation
						End Site
						{
							OFFSET 0.094687 -0.116865 6.675871
						}
					}
				}
			}
		}
	}
}
MOTION
Frames: 4
Frame Time: 0.016667
-35.312538 100.448959 0.825120 1.417032 -3.878741 0.277304 5.625413 0.483911 6.378629 1.478720 0.073196 -2.825944 1.481959 0.027153 -2.824469 8.311353 1.684603 0.520175 9.450292 12.973349 -13.042584 0.000001 -0.000001 0.000001 -0.285230 6.228869 0.752258 5.542116 -41.721295 -61.631256 -0.139868 -9.102731 -1.007285 20.691418 7.183071 -5.288926 0.765588 12.565847 10.875520 2.110316 7.602522 -3.048720 -1.267155 -5.336455 -1.339418 0.000002 -0.000000 -0.000002 0.140439 0.604731 -1.661693 0.129958 0.422903 -1.465459 0.259828 0.622381 -2.894595 -0.000001 -0.000001 0.000001 0.256859 -3.355957 -8.105514 0.004201 0.816102 -1.199572 0.255627 2.762386 -15.510144 0.000002 0.000001 -0.000002 -0.204038 -5.576740 -17.458090 -0.559825 2.225732 -8.202589 -0.583692 2.639217 -10.511447 -0.000004 0.000004 -0.000005 0.390978 -1.925290 -20.395807 -1.111020 -0.092894 -16.820681 -1.524196 5.287171 -23.607632 0.000004 0.000001 -0.000001 0.993658 10.161314 2.700144 -27.460863 -36.520198 46.003701 -0.289930 17.149454 1.038791 18.840076 13.956207 -30.323810 0.543811 -19.414632 -7.353537 3.312424 -12.046164 3.698484 -2.245377 7.265009 0.847930 -0.000001 0.000001 -0.000002 1.267700 -3.302189 10.862250 2.076458 -3.347957 15.910926 2.830592 -3.703950 21.519346 -0.000001 0.000001 -0.000000 0.610540 1.294297 14.552177 0.791289 -4.116138 18.553237 0.804586 -3.873846 17.137781 0.000000 -0.000003 0.000001 0.104122 3.023659 21.844483 -0.023169 -6.097111 28.319783 0.054566 -6.299808 29.283671 -0.000000 -0.000001 0.000001 -1.124097 3.908421 32.871303 -1.677336 -7.582996 32.361802 -1.451216 -10.164564 46.562772 0.000001 -0.000001 -0.000004 -9.662113 23.653763 14.560959 17.156008 9.994258 -5.797350 -8.084740 8.952769 -6.769572 -0.000004 -0.000008 0.000006 0.000000 -0.000006 -0.000000 -13.849477 -10.036101 -10.430711 19.263664 -10.688058 -0.329336 -2.236311 -18.231433 5.284100 -0.014607 -0.000004 0.004467 0.000000 0.000003 -0.000000 
-35.169041 100.331528 0.840388 1.737290 0.489807 -0.446392 5.072751 0.581945 6.746361 1.779111 0.083454 -2.801419 1.783177 0.036114 -2.799112 8.098686 1.638331 -0.276672 8.523820 11.552838 -11.818631 -0.000000 -0.000001 -0.000001 -0.251444 5.887863 0.715362 5.006313 -41.682548 -61.788507 -0.133437 -8.743669 -1.006397 20.330138 7.104262 -4.028960 0.765587 12.565847 10.875522 2.110316 7.602514 -3.048726 -1.267153 -5.336457 -1.339420 0.000001 -0.000002 -0.000003 0.169778 0.678685 -1.985065 0.209463 0.619320 -2.324852 0.320762 0.764562 -3.522814 -0.000001 0.000000 0.000000 0.267876 -3.241576 -8.610794 0.008809 1.032817 -2.155688 0.294469 2.941834 -16.320583 0.000003 -0.000001 0.000000 -0.217174 -5.387230 -18.266701 -0.615811 2.502678 -9.411904 -0.616376 2.868928 -11.512155 -0.000003 -0.000001 0.000001 0.453394 -1.636432 -21.687159 -1.161498 0.276341 -18.317157 -1.537640 5.562384 -24.699158 0.000000 0.000001 0.000001 1.009713 10.362666 2.637517 -22.472437 -36.797009 52.681020 -0.218246 13.327115 1.021099 20.195888 15.529869 -34.797184 0.543806 -19.414630 -7.353535 3.312424 -12.046155 3.698480 -2.245381 7.265008 0.847933 0.000000 -0.000006 -0.000002 0.850154 -2.678159 7.703781 1.731163 -2.935351 13.656174 2.335315 -3.178745 18.443230 0.000001 0.000002 -0.000001 0.472206 1.835742 11.938429 0.639578 -3.695467 16.449986 0.619602 -3.356446 14.552517 0.000001 0.000001 -0.000002 0.043829 3.601137 19.163465 -0.112607 -5.713159 26.487093 -0.058489 -5.851785 27.132542 -0.000000 0.000001 0.000000 -1.142413 4.704423 29.516461 -1.692482 -7.267605 31.017429 -1.561864 -9.740507 44.718027 0.000002 0.000001 0.000001 -12.491530 23.544997 16.364980 18.538185 9.991739 -6.358517 -7.161744 6.893692 -6.331667 -0.000008 -0.000006 0.000006 0.000000 -0.000000 0.000000 -12.914978 -10.414954 -10.042499 19.410894 -10.668619 0.007391 -2.678446 -21.589251 5.941575 -0.014391 -0.000010 0.003955 -0.000000 0.000002 -0.000001 
-34.967850 100.201424 0.876741 1.969218 4.733601 -1.236844 4.753518 0.698038 7.025188 2.063608 0.097504 -2.692383 2.068443 0.048631 -2.689120 7.625036 1.473407 -0.879922 7.580875 9.544231 -10.228347 0.000000 -0.000001 0.000000 -0.177573 5.126039 0.643554 4.507894 -41.507090 -61.892913 -0.129929 -8.548279 -1.005947 19.609977 6.842697 -2.490965 0.765591 12.565842 10.875516 2.110317 7.602520 -3.048724 -1.267153 -5.336458 -1.339421 -0.000001 0.000003 -0.000001 0.163520 0.662996 -1.916479 0.259410 0.738520 -2.849095 0.358685 0.850957 -3.906030 0.000002 -0.000000 0.000000 0.271548 -3.205781 -8.769134 0.013754 1.174529 -2.781164 0.322472 3.064127 -16.874495 -0.000001 -0.000001 0.000001 -0.223027 -5.287238 -18.693104 -0.652985 2.705608 -10.294893 -0.638344 3.042150 -12.265230 -0.000005 -0.000001 0.000002 0.494631 -1.460990 -22.474794 -1.194839 0.571527 -19.509826 -1.544557 5.781936 -25.569563 0.000001 0.000000 0.000000 1.078256 11.417295 2.583751 -16.626999 -34.171897 59.803654 -0.160638 10.165896 1.010335 18.494747 15.576222 -35.506954 0.543804 -19.414632 -7.353534 3.312423 -12.046156 3.698484 -2.245380 7.265004 0.847929 -0.000001 0.000000 0.000001 0.534902 -2.151531 5.125979 1.394869 -2.499173 11.350962 1.858421 -2.614327 15.299948 -0.000001 0.000001 -0.000003 0.370557 2.319221 9.628049 0.496455 -3.245869 14.232886 0.443504 -2.778541 11.713094 -0.000001 -0.000000 0.000001 0.011401 4.159513 16.579593 -0.201646 -5.259614 24.340375 -0.174946 -5.291030 24.469424 -0.000001 0.000000 0.000001 -1.112681 5.519111 26.077370 -1.701142 -6.818788 29.107842 -1.695052 -9.132083 42.100620 -0.000000 -0.000001 0.000002 -15.204247 23.288312 18.007874 20.095310 9.938837 -6.898458 -6.660194 3.961234 -5.747999 -0.000005 0.000010 -0.000003 0.000000 0.000000 0.000000 -11.849350 -10.668700 -9.490158 19.623359 -10.593990 0.324469 -3.334507 -24.261971 6.401751 -0.014454 0.000026 0.004270 -0.000000 -0.000001 0.000000 
-34.728630 100.103706 0.914109 2.103920 8.708991 -1.970579 4.683681 0.928987 7.171396 2.302675 0.128239 -2.556058 2.308846 0.077624 -2.551511 6.946689 1.186673 -1.257591 6.732008 7.045867 -8.468775 -0.000000 0.000000 -0.000001 -0.077454 4.063729 0.562569 4.057657 -41.325370 -61.960054 -0.128694 -8.478218 -1.005756 18.609897 6.446037 -0.917893 0.765589 12.565850 10.875520 2.110313 7.602520 -3.048724 -1.267149 -5.336462 -1.339420 0.000001 0.000006 0.000002 0.130187 0.578622 -1.547693 0.280246 0.787392 -3.064732 0.374420 0.886417 -4.063615 0.000000 -0.000000 0.000000 0.268586 -3.234462 -8.642275 0.016831 1.245544 -3.094709 0.338457 3.131588 -17.180569 0.000002 0.000002 -0.000003 -0.224174 -5.266129 -18.783019 -0.674727 2.833278 -10.849154 -0.651586 3.156630 -12.762318 0.000000 -0.000002 0.000001 0.512301 -1.389016 -22.798697 -1.215045 0.784287 -20.367788 -1.547478 5.939932 -26.195908 0.000001 -0.000004 0.000000 1.191553 13.254834 2.593013 -11.506272 -28.912119 66.271092 -0.115666 7.654440 1.004151 14.577079 14.154949 -33.514686 0.543808 -19.414627 -7.353533 3.312424 -12.046159 3.698483 -2.245383 7.265003 0.847926 -0.000000 -0.000001 0.000002 0.322720 -1.763673 3.271432 1.103425 -2.089369 9.248797 1.450749 -2.076819 12.434884 0.000001 -0.000000 -0.000002 0.303910 2.704953 7.797544 0.377257 -2.815869 12.137894 0.299267 -2.205721 8.939557 0.000002 0.000000 -0.000001 0.003724 4.643353 14.342895 -0.275598 -4.787856 22.124716 -0.270717 -4.682916 21.610281 -0.000000 0.000001 0.000000 -1.042571 6.260309 22.932102 -1.692123 -6.292372 26.870434 -1.814992 -8.411737 39.038100 -0.000000 -0.000001 0.000003 -17.420213 22.884378 19.321357 21.210090 9.586611 -7.331372 -5.726889 0.915799 -5.722399 -0.000008 0.000022 0.000008 0.000000 -0.000006 0.000000 -10.598492 -10.775429 -8.803738 19.693080 -10.506579 0.565008 -4.234932 -25.711088 6.523236 -0.014998 -0.000005 0.005653 0.000000 -0.000003 -0.000000 
